<svg width="312" height="166" viewBox="0 0 312 166" fill="none" xmlns="http://www.w3.org/2000/svg">
<g filter="url(#filter0_d)">
<path d="M4 6C4 2.68629 6.68629 0 10 0H302C305.314 0 308 2.68629 308 6V152C308 155.314 305.314 158 302 158H10C6.68629 158 4 155.314 4 152V6Z" fill="#ECBF1E"/>
<path d="M4 6C4 2.68629 6.68629 0 10 0H302C305.314 0 308 2.68629 308 6V152C308 155.314 305.314 158 302 158H10C6.68629 158 4 155.314 4 152V6Z" fill="#ECBF1E"/>
</g>
<defs>
<filter id="filter0_d" x="0" y="0" width="312" height="166" filterUnits="userSpaceOnUse" color-interpolation-filters="sRGB">
<feFlood flood-opacity="0" result="BackgroundImageFix"/>
<feColorMatrix in="SourceAlpha" type="matrix" values="0 0 0 0 0 0 0 0 0 0 0 0 0 0 0 0 0 0 127 0" result="hardAlpha"/>
<feOffset dy="4"/>
<feGaussianBlur stdDeviation="2"/>
<feColorMatrix type="matrix" values="0 0 0 0 0 0 0 0 0 0 0 0 0 0 0 0 0 0 0.25 0"/>
<feBlend mode="normal" in2="BackgroundImageFix" result="effect1_dropShadow"/>
<feBlend mode="normal" in="SourceGraphic" in2="effect1_dropShadow" result="shape"/>
</filter>
</defs>
</svg>
