<svg width="36" height="39" viewBox="0 0 36 39" fill="none" xmlns="http://www.w3.org/2000/svg">
<path fill-rule="evenodd" clip-rule="evenodd" d="M22.1269 7.76407C22.1447 7.51957 22.1538 7.27133 22.1538 7.02C22.1538 3.14296 19.9841 0 17.3077 0C14.6312 0 12.4615 3.14296 12.4615 7.02C12.4615 7.47432 12.4913 7.91855 12.5482 8.34883C8.00439 10.6834 4.84615 15.8461 4.84615 21.84C4.84615 22.3338 4.86759 22.822 4.90948 23.3035C2.01934 24.5683 0 27.4533 0 30.81C0 35.3332 3.66679 39 8.19 39H27.81C32.3332 39 36 35.3332 36 30.81C36 27.4533 33.9807 24.5683 31.0905 23.3035C31.1324 22.822 31.1538 22.3338 31.1538 21.84C31.1538 15.2793 27.37 9.71432 22.1269 7.76407Z" fill="#708C5F"/>
</svg>
